<?xml version="1.0" encoding="UTF-8" standalone="no"?>
<svg width="1179px" height="155px" viewBox="0 0 1179 155" version="1.1" xmlns="http://www.w3.org/2000/svg" xmlns:xlink="http://www.w3.org/1999/xlink">
    <!-- Generator: Sketch 3.6.1 (26313) - http://www.bohemiancoding.com/sketch -->
    <title>mask</title>
    <desc>Created with Sketch.</desc>
    <defs>
        <path id="path-1" d="M0,98 L1223.61328,0.327148438 L1170,158.75 L0,158.75 L0,98 Z"></path>
    </defs>
    <g id="Portfolio-Layout" stroke="none" stroke-width="1" fill="none" fill-rule="evenodd">
        <g id="Dribbble" transform="translate(-311.000000, -581.000000)">
            <g id="mask" transform="translate(310.500000, 577.000000)">
                <path d="M210.703125,60.359375 L210.703125,128 L224.859375,128 L224.859375,107 L238.21875,107 C252.46875,107 262.359375,97.671875 262.359375,83.75 C262.359375,69.6875 252.84375,60.359375 238.921875,60.359375 L210.703125,60.359375 Z M224.859375,71.984375 L235.171875,71.984375 C243.328125,71.984375 247.96875,76.109375 247.96875,83.796875 C247.96875,91.390625 243.234375,95.515625 235.125,95.515625 L224.859375,95.515625 L224.859375,71.984375 Z M292.6875,118.53125 C287.953125,118.53125 284.625,116.1875 284.625,112.34375 C284.625,108.640625 287.484375,106.53125 293.34375,106.109375 L303.796875,105.453125 L303.796875,109.25 C303.796875,114.5 299.015625,118.53125 292.6875,118.53125 L292.6875,118.53125 Z M288.1875,128.796875 C294.890625,128.796875 300.515625,125.984375 303.1875,121.25 L304.03125,121.25 L304.03125,128 L317.25,128 L317.25,92.703125 C317.25,81.640625 309.515625,75.171875 295.828125,75.171875 C282.84375,75.171875 274.078125,81.171875 273.1875,90.734375 L285.75,90.734375 C286.875,87.640625 290.15625,85.953125 295.078125,85.953125 C300.703125,85.953125 303.796875,88.390625 303.796875,92.703125 L303.796875,96.921875 L291.28125,97.671875 C278.4375,98.421875 271.265625,103.859375 271.265625,113.234375 C271.265625,122.703125 278.25,128.796875 288.1875,128.796875 L288.1875,128.796875 Z M330.65625,128 L344.296875,128 L344.296875,98.1875 C344.296875,91.390625 348.609375,86.9375 355.359375,86.9375 C361.828125,86.9375 365.203125,90.6875 365.203125,97.8125 L365.203125,128 L378.84375,128 L378.84375,94.578125 C378.84375,82.203125 372.328125,75.171875 360.796875,75.171875 C353.203125,75.171875 347.109375,78.78125 344.71875,84.59375 L343.875,84.59375 L343.875,76.296875 L330.65625,76.296875 L330.65625,128 Z M410.578125,128.796875 C417.75,128.796875 423.609375,125.46875 426.375,119.890625 L427.21875,119.890625 L427.21875,128 L440.4375,128 L440.4375,56.5625 L426.796875,56.5625 L426.796875,84.546875 L426,84.546875 C423.328125,78.828125 417.5625,75.453125 410.578125,75.453125 C397.59375,75.453125 389.53125,85.625 389.53125,102.078125 C389.53125,118.578125 397.546875,128.796875 410.578125,128.796875 L410.578125,128.796875 Z M415.21875,86.890625 C422.484375,86.890625 426.9375,92.75 426.9375,102.171875 C426.9375,111.640625 422.53125,117.40625 415.21875,117.40625 C407.90625,117.40625 403.546875,111.6875 403.546875,102.125 C403.546875,92.65625 407.953125,86.890625 415.21875,86.890625 L415.21875,86.890625 Z M473.25,118.53125 C468.515625,118.53125 465.1875,116.1875 465.1875,112.34375 C465.1875,108.640625 468.046875,106.53125 473.90625,106.109375 L484.359375,105.453125 L484.359375,109.25 C484.359375,114.5 479.578125,118.53125 473.25,118.53125 L473.25,118.53125 Z M468.75,128.796875 C475.453125,128.796875 481.078125,125.984375 483.75,121.25 L484.59375,121.25 L484.59375,128 L497.8125,128 L497.8125,92.703125 C497.8125,81.640625 490.078125,75.171875 476.390625,75.171875 C463.40625,75.171875 454.640625,81.171875 453.75,90.734375 L466.3125,90.734375 C467.4375,87.640625 470.71875,85.953125 475.640625,85.953125 C481.265625,85.953125 484.359375,88.390625 484.359375,92.703125 L484.359375,96.921875 L471.84375,97.671875 C459,98.421875 451.828125,103.859375 451.828125,113.234375 C451.828125,122.703125 458.8125,128.796875 468.75,128.796875 L468.75,128.796875 Z M532.6875,108.125 C532.6875,121.390625 541.78125,129.734375 555.65625,129.734375 C570,129.734375 578.625,121.578125 578.625,107 L578.625,60.359375 L564.46875,60.359375 L564.46875,106.90625 C564.46875,113.5625 561.28125,117.078125 555.46875,117.078125 C550.03125,117.078125 546.46875,113.5625 546.375,108.125 L532.6875,108.125 Z M616.59375,117.96875 C609.28125,117.96875 605.15625,112.203125 605.15625,102.125 C605.15625,92.1875 609.328125,86.328125 616.59375,86.328125 C623.8125,86.328125 628.03125,92.1875 628.03125,102.125 C628.03125,112.15625 623.859375,117.96875 616.59375,117.96875 L616.59375,117.96875 Z M616.59375,129.125 C632.484375,129.125 642.046875,119.046875 642.046875,102.125 C642.046875,85.34375 632.34375,75.171875 616.59375,75.171875 C600.84375,75.171875 591.140625,85.390625 591.140625,102.125 C591.140625,119.046875 600.703125,129.125 616.59375,129.125 L616.59375,129.125 Z M683.625,128.796875 C696.609375,128.796875 704.578125,118.71875 704.578125,102.125 C704.578125,85.4375 696.703125,75.453125 683.625,75.453125 C676.546875,75.453125 670.734375,78.875 668.109375,84.546875 L667.265625,84.546875 L667.265625,56.5625 L653.625,56.5625 L653.625,128 L666.84375,128 L666.84375,119.890625 L667.6875,119.890625 C670.453125,125.515625 676.3125,128.796875 683.625,128.796875 L683.625,128.796875 Z M678.890625,86.890625 C686.109375,86.890625 690.5625,92.703125 690.5625,102.125 C690.5625,111.59375 686.15625,117.40625 678.890625,117.40625 C671.671875,117.40625 667.171875,111.546875 667.125,102.171875 C667.171875,92.75 671.71875,86.890625 678.890625,86.890625 L678.890625,86.890625 Z M714.515625,91.484375 C714.515625,99.453125 719.390625,104.234375 729.421875,106.4375 L738.796875,108.546875 C743.34375,109.53125 745.3125,111.078125 745.3125,113.609375 C745.3125,116.9375 741.65625,119.140625 736.359375,119.140625 C730.921875,119.140625 727.59375,117.125 726.5625,113.609375 L713.25,113.609375 C714.1875,123.546875 722.4375,129.125 736.078125,129.125 C749.625,129.125 758.859375,122.375 758.859375,112.0625 C758.859375,104.328125 754.359375,100.109375 744.328125,97.90625 L734.625,95.796875 C729.84375,94.71875 727.640625,93.171875 727.640625,90.640625 C727.640625,87.359375 731.25,85.15625 736.125,85.15625 C741.1875,85.15625 744.328125,87.21875 745.03125,90.546875 L757.640625,90.546875 C756.890625,80.65625 749.15625,75.171875 736.03125,75.171875 C723.140625,75.171875 714.515625,81.6875 714.515625,91.484375 L714.515625,91.484375 Z" id="Panda-Jobs" fill="#EDF9FD"></path>
                <path d="M0,98 L1223.61328,0.327148438 L1170,136.25 L0,136.25 L0,98 Z" id="Rectangle-14" fill="#EDF9FD"></path>
                <mask id="mask-2" fill="white">
                    <use xlink:href="#path-1"></use>
                </mask>
                <use id="Mask" fill="#EDF9FD" xlink:href="#path-1"></use>
                <path d="M210.703125,60.359375 L210.703125,128 L224.859375,128 L224.859375,107 L238.21875,107 C252.46875,107 262.359375,97.671875 262.359375,83.75 C262.359375,69.6875 252.84375,60.359375 238.921875,60.359375 L210.703125,60.359375 Z M224.859375,71.984375 L235.171875,71.984375 C243.328125,71.984375 247.96875,76.109375 247.96875,83.796875 C247.96875,91.390625 243.234375,95.515625 235.125,95.515625 L224.859375,95.515625 L224.859375,71.984375 Z M292.6875,118.53125 C287.953125,118.53125 284.625,116.1875 284.625,112.34375 C284.625,108.640625 287.484375,106.53125 293.34375,106.109375 L303.796875,105.453125 L303.796875,109.25 C303.796875,114.5 299.015625,118.53125 292.6875,118.53125 L292.6875,118.53125 Z M288.1875,128.796875 C294.890625,128.796875 300.515625,125.984375 303.1875,121.25 L304.03125,121.25 L304.03125,128 L317.25,128 L317.25,92.703125 C317.25,81.640625 309.515625,75.171875 295.828125,75.171875 C282.84375,75.171875 274.078125,81.171875 273.1875,90.734375 L285.75,90.734375 C286.875,87.640625 290.15625,85.953125 295.078125,85.953125 C300.703125,85.953125 303.796875,88.390625 303.796875,92.703125 L303.796875,96.921875 L291.28125,97.671875 C278.4375,98.421875 271.265625,103.859375 271.265625,113.234375 C271.265625,122.703125 278.25,128.796875 288.1875,128.796875 L288.1875,128.796875 Z M330.65625,128 L344.296875,128 L344.296875,98.1875 C344.296875,91.390625 348.609375,86.9375 355.359375,86.9375 C361.828125,86.9375 365.203125,90.6875 365.203125,97.8125 L365.203125,128 L378.84375,128 L378.84375,94.578125 C378.84375,82.203125 372.328125,75.171875 360.796875,75.171875 C353.203125,75.171875 347.109375,78.78125 344.71875,84.59375 L343.875,84.59375 L343.875,76.296875 L330.65625,76.296875 L330.65625,128 Z M410.578125,128.796875 C417.75,128.796875 423.609375,125.46875 426.375,119.890625 L427.21875,119.890625 L427.21875,128 L440.4375,128 L440.4375,56.5625 L426.796875,56.5625 L426.796875,84.546875 L426,84.546875 C423.328125,78.828125 417.5625,75.453125 410.578125,75.453125 C397.59375,75.453125 389.53125,85.625 389.53125,102.078125 C389.53125,118.578125 397.546875,128.796875 410.578125,128.796875 L410.578125,128.796875 Z M415.21875,86.890625 C422.484375,86.890625 426.9375,92.75 426.9375,102.171875 C426.9375,111.640625 422.53125,117.40625 415.21875,117.40625 C407.90625,117.40625 403.546875,111.6875 403.546875,102.125 C403.546875,92.65625 407.953125,86.890625 415.21875,86.890625 L415.21875,86.890625 Z M473.25,118.53125 C468.515625,118.53125 465.1875,116.1875 465.1875,112.34375 C465.1875,108.640625 468.046875,106.53125 473.90625,106.109375 L484.359375,105.453125 L484.359375,109.25 C484.359375,114.5 479.578125,118.53125 473.25,118.53125 L473.25,118.53125 Z M468.75,128.796875 C475.453125,128.796875 481.078125,125.984375 483.75,121.25 L484.59375,121.25 L484.59375,128 L497.8125,128 L497.8125,92.703125 C497.8125,81.640625 490.078125,75.171875 476.390625,75.171875 C463.40625,75.171875 454.640625,81.171875 453.75,90.734375 L466.3125,90.734375 C467.4375,87.640625 470.71875,85.953125 475.640625,85.953125 C481.265625,85.953125 484.359375,88.390625 484.359375,92.703125 L484.359375,96.921875 L471.84375,97.671875 C459,98.421875 451.828125,103.859375 451.828125,113.234375 C451.828125,122.703125 458.8125,128.796875 468.75,128.796875 L468.75,128.796875 Z M532.6875,108.125 C532.6875,121.390625 541.78125,129.734375 555.65625,129.734375 C570,129.734375 578.625,121.578125 578.625,107 L578.625,60.359375 L564.46875,60.359375 L564.46875,106.90625 C564.46875,113.5625 561.28125,117.078125 555.46875,117.078125 C550.03125,117.078125 546.46875,113.5625 546.375,108.125 L532.6875,108.125 Z M616.59375,117.96875 C609.28125,117.96875 605.15625,112.203125 605.15625,102.125 C605.15625,92.1875 609.328125,86.328125 616.59375,86.328125 C623.8125,86.328125 628.03125,92.1875 628.03125,102.125 C628.03125,112.15625 623.859375,117.96875 616.59375,117.96875 L616.59375,117.96875 Z M616.59375,129.125 C632.484375,129.125 642.046875,119.046875 642.046875,102.125 C642.046875,85.34375 632.34375,75.171875 616.59375,75.171875 C600.84375,75.171875 591.140625,85.390625 591.140625,102.125 C591.140625,119.046875 600.703125,129.125 616.59375,129.125 L616.59375,129.125 Z M683.625,128.796875 C696.609375,128.796875 704.578125,118.71875 704.578125,102.125 C704.578125,85.4375 696.703125,75.453125 683.625,75.453125 C676.546875,75.453125 670.734375,78.875 668.109375,84.546875 L667.265625,84.546875 L667.265625,56.5625 L653.625,56.5625 L653.625,128 L666.84375,128 L666.84375,119.890625 L667.6875,119.890625 C670.453125,125.515625 676.3125,128.796875 683.625,128.796875 L683.625,128.796875 Z M678.890625,86.890625 C686.109375,86.890625 690.5625,92.703125 690.5625,102.125 C690.5625,111.59375 686.15625,117.40625 678.890625,117.40625 C671.671875,117.40625 667.171875,111.546875 667.125,102.171875 C667.171875,92.75 671.71875,86.890625 678.890625,86.890625 L678.890625,86.890625 Z M714.515625,91.484375 C714.515625,99.453125 719.390625,104.234375 729.421875,106.4375 L738.796875,108.546875 C743.34375,109.53125 745.3125,111.078125 745.3125,113.609375 C745.3125,116.9375 741.65625,119.140625 736.359375,119.140625 C730.921875,119.140625 727.59375,117.125 726.5625,113.609375 L713.25,113.609375 C714.1875,123.546875 722.4375,129.125 736.078125,129.125 C749.625,129.125 758.859375,122.375 758.859375,112.0625 C758.859375,104.328125 754.359375,100.109375 744.328125,97.90625 L734.625,95.796875 C729.84375,94.71875 727.640625,93.171875 727.640625,90.640625 C727.640625,87.359375 731.25,85.15625 736.125,85.15625 C741.1875,85.15625 744.328125,87.21875 745.03125,90.546875 L757.640625,90.546875 C756.890625,80.65625 749.15625,75.171875 736.03125,75.171875 C723.140625,75.171875 714.515625,81.6875 714.515625,91.484375 L714.515625,91.484375 Z" id="Panda-Jobs" fill="#6B36E3" mask="url(#mask-2)"></path>
            </g>
        </g>
    </g>
</svg>