<?xml version="1.0" encoding="utf-8"?>
<svg version="1.1"
	 xmlns="http://www.w3.org/2000/svg" xmlns:xlink="http://www.w3.org/1999/xlink" x="0px" y="0px" viewBox="-383 387 33 27"
	 enable-background="new -383 387 33 27" xml:space="preserve">
<path id="panda" sketch:type="MSShapeGroup" fill="#FFFFFF" d="M-359.5,389.5c-2-1-4.3-1.5-6.8-1.5c-2.6,0-4.9,0.6-7,1.7l0,0
	c-1-1.2-2.4-2-4-2c-2.9,0-5.1,2.3-5.1,5.1c0,1.8,1,3.4,2.4,4.3c-0.4,1.1-0.6,2.3-0.6,3.6c0,7,6.4,12.7,14.3,12.7
	c7.9,0,14.3-5.7,14.3-12.7c0-1.3-0.2-2.6-0.6-3.7c1.3-1,2.2-2.4,2.2-4.2c0-2.9-2.3-5.1-5.1-5.1
	C-357.2,387.6-358.6,388.3-359.5,389.5L-359.5,389.5L-359.5,389.5z"/>
</svg>

