<?xml version="1.0" encoding="UTF-8" standalone="no"?>
<svg width="800px" height="600px" viewBox="0 0 800 600" version="1.1" xmlns="http://www.w3.org/2000/svg" xmlns:xlink="http://www.w3.org/1999/xlink" xmlns:sketch="http://www.bohemiancoding.com/sketch/ns">
    <!-- Generator: Sketch 3.3.2 (12043) - http://www.bohemiancoding.com/sketch -->
    <title>goodrich-swipes-thumb</title>
    <desc>Created with Sketch.</desc>
    <defs>
        <linearGradient x1="50%" y1="31.1358385%" x2="50%" y2="100%" id="linearGradient-1">
            <stop stop-color="#FF2C75" offset="0%"></stop>
            <stop stop-color="#63368B" offset="100%"></stop>
        </linearGradient>
    </defs>
    <g id="Portfolio" stroke="none" stroke-width="1" fill="none" fill-rule="evenodd" sketch:type="MSPage">
        <g id="goodrich-swipes-thumb" sketch:type="MSArtboardGroup">
            <rect id="Rectangle-3" fill="url(#linearGradient-1)" sketch:type="MSShapeGroup" x="0" y="0" width="1440" height="600"></rect>
            <g id="Goodrich-Swipes" sketch:type="MSLayerGroup" transform="translate(-5.000000, 377.000000)" fill="#FFFFFF">
                <path d="M0.567520219,189.731505 C0.567520219,211.313362 15.8905661,223.453157 36.0524687,223.453157 C56.7520219,223.453157 71.4030044,212.662228 71.4030044,193.238557 C71.4030044,174.354432 53.7949429,168.149648 38.3374843,162.754183 C30.407136,159.921564 24.8962159,156.549399 24.8962159,150.344615 C24.8962159,143.870058 30.1383106,140.632779 36.321294,140.632779 C43.8484043,140.632779 48.0151975,145.893357 48.0151975,154.256327 L69.7900522,154.256327 C69.7900522,138.204821 58.6337995,124.176613 36.321294,124.176613 C19.1164705,124.176613 3.25577389,133.348903 3.25577389,150.749275 C3.25577389,169.903174 17.7723437,175.433524 35.1115799,181.773195 C43.3107536,184.875587 49.7625624,187.438433 49.7625624,194.992083 C49.7625624,201.601526 44.386055,206.052785 37.3965955,206.052785 C28.5253584,206.052785 22.3423749,199.982887 22.3423749,189.731505 L0.567520219,189.731505 Z M144.120266,221.025198 L160.787439,221.025198 L184.981722,156.009853 L163.744518,156.009853 L151.781789,194.722309 L140.356711,156.009853 L121.404523,156.009853 L109.979445,194.722309 L98.0167158,156.009853 L76.7795118,156.009853 L100.973795,221.025198 L117.640968,221.025198 L130.947823,179.615009 L144.120266,221.025198 Z M190.627055,134.427995 C190.627055,141.576986 196.4068,147.511996 203.799498,147.511996 C211.326608,147.511996 217.106353,141.576986 217.106353,134.427995 C217.106353,127.144119 211.326608,121.343994 203.799498,121.343994 C196.4068,121.343994 190.627055,127.144119 190.627055,134.427995 L190.627055,134.427995 Z M193.584134,221.025198 L214.149274,221.025198 L214.149274,156.009853 L193.584134,156.009853 L193.584134,221.025198 Z M267.779935,171.926473 C276.919998,171.926473 283.102981,179.480123 283.102981,188.517525 C283.102981,197.554928 276.919998,205.108578 267.779935,205.108578 C258.371047,205.108578 252.188064,197.554928 252.188064,188.517525 C252.188064,179.480123 258.371047,171.926473 267.779935,171.926473 L267.779935,171.926473 Z M252.188064,156.009853 L231.622923,156.009853 L231.622923,250.430479 L252.188064,250.430479 L252.188064,211.718022 C255.279555,217.653033 263.613142,222.643837 272.081141,222.643837 C290.764504,222.643837 303.668122,207.941197 303.668122,188.517525 C303.668122,169.093854 290.764504,154.391214 272.081141,154.391214 C263.613142,154.391214 255.279555,159.382018 252.188064,165.317029 L252.188064,156.009853 Z M380.148938,193.50833 C380.821002,189.596618 380.821002,186.629113 380.821002,183.931381 C380.821002,168.014761 367.782972,154.256327 347.486656,154.256327 C325.039738,154.256327 313.077009,169.498514 313.077009,188.517525 C313.077009,208.61563 325.308564,222.778724 348.024307,222.778724 C366.573257,222.778724 378.132748,212.797115 380.014526,200.522434 L359.852623,200.522434 C358.508496,204.703918 355.013767,207.941197 347.889894,207.941197 C337.13688,207.941197 333.910975,201.331753 333.507737,193.50833 L380.148938,193.50833 Z M347.352244,168.014761 C355.148179,168.014761 360.659099,173.275339 360.659099,181.638308 L333.507737,181.638308 C333.507737,172.870679 339.287483,168.014761 347.352244,168.014761 L347.352244,168.014761 Z M428.80633,182.717401 C417.918903,179.075463 412.27357,178.266143 412.27357,173.545112 C412.27357,169.6334 415.7683,167.744988 419.935093,167.744988 C425.580425,167.744988 428.403092,170.84738 428.403092,176.242844 L448.699407,176.242844 C448.699407,163.833276 439.559345,154.256327 420.741569,154.256327 C403.26792,154.256327 392.111667,160.595998 392.111667,174.084658 C392.111667,186.629113 401.386142,189.731505 412.139157,193.10367 C424.370711,197.150268 429.478393,197.824701 429.478393,202.815506 C429.478393,207.131877 425.983664,208.885403 421.010394,208.885403 C414.961824,208.885403 410.660618,206.187671 410.660618,199.308454 L390.498715,199.308454 C390.498715,214.280868 401.923793,222.778724 420.338331,222.778724 C436.467853,222.778724 449.640296,217.248373 449.640296,201.8713 C449.640296,189.191959 440.231408,186.089567 428.80633,182.717401 L428.80633,182.717401 Z" sketch:type="MSShapeGroup"></path>
                <path d="M57.4240853,66.6414783 L74.0912581,66.6414783 C72.6127186,76.0835409 64.8167829,84.1767374 51.64434,84.1767374 C32.1545008,84.1767374 22.8800257,69.8787569 22.8800257,53.1528174 C22.8800257,37.2361976 32.0200882,22.2637841 49.7625624,22.2637841 C61.1876405,22.2637841 68.7147508,29.0081145 70.0588776,36.426878 L93.3122718,36.426878 C91.6993196,18.4869591 74.6289088,3.37965891 49.8969751,3.37965891 C19.1164705,3.37965891 0.567520219,27.2545886 0.567520219,53.0179308 C0.567520219,79.4557061 18.3099944,102.656203 49.8969751,102.656203 C76.7795118,102.656203 92.7746211,88.088449 96.5381763,66.6414783 L106.215889,66.6414783 L106.215889,50.3201987 L57.4240853,50.3201987 L57.4240853,66.6414783 Z M148.690297,101.98177 C171.271628,101.98177 184.712897,86.3349231 184.712897,67.7205712 C184.712897,49.1062192 171.271628,33.4593726 148.690297,33.4593726 C126.377792,33.4593726 112.802111,49.1062192 112.802111,67.7205712 C112.802111,86.3349231 126.377792,101.98177 148.690297,101.98177 Z M229.203495,101.98177 C251.784826,101.98177 265.226094,86.3349231 265.226094,67.7205712 C265.226094,49.1062192 251.784826,33.4593726 229.203495,33.4593726 C206.890989,33.4593726 193.315308,49.1062192 193.315308,67.7205712 C193.315308,86.3349231 206.890989,101.98177 229.203495,101.98177 Z M325.577389,100.228244 L346.14253,100.228244 L346.14253,5.80761787 L325.577389,5.80761787 L325.577389,44.5200745 C322.485897,38.5850637 314.152311,33.5942592 305.818724,33.5942592 C287.135361,33.5942592 274.231744,48.2968995 274.231744,67.7205712 C274.231744,87.1442428 287.135361,101.846883 305.818724,101.846883 C314.152311,101.846883 322.485897,96.9909652 325.577389,91.0559544 L325.577389,100.228244 Z M148.690297,84.311624 C139.415822,84.311624 133.367252,76.8928605 133.367252,67.7205712 C133.367252,58.6831684 139.415822,51.1295183 148.690297,51.1295183 C158.099185,51.1295183 164.282169,58.6831684 164.282169,67.7205712 C164.282169,76.8928605 158.099185,84.311624 148.690297,84.311624 Z M229.203495,84.311624 C219.92902,84.311624 213.880449,76.8928605 213.880449,67.7205712 C213.880449,58.6831684 219.92902,51.1295183 229.203495,51.1295183 C238.612383,51.1295183 244.795366,58.6831684 244.795366,67.7205712 C244.795366,76.8928605 238.612383,84.311624 229.203495,84.311624 Z M310.11993,84.311624 C300.845455,84.311624 294.662472,76.7579739 294.662472,67.7205712 C294.662472,58.818055 300.845455,51.1295183 310.11993,51.1295183 C319.394406,51.1295183 325.577389,58.818055 325.577389,67.7205712 C325.577389,76.7579739 319.394406,84.311624 310.11993,84.311624 Z M410.122967,35.2128985 C408.241189,34.4035789 406.493824,34.1338056 403.939983,34.1338056 C394.934334,34.1338056 387.138398,39.6641566 384.181319,45.734054 L384.181319,35.2128985 L363.616178,35.2128985 L363.616178,100.228244 L384.181319,100.228244 L384.181319,74.8695614 C384.181319,58.9529416 391.574017,53.0179308 402.864682,53.0179308 C405.687348,53.0179308 407.300301,53.287704 410.122967,53.9621371 L410.122967,35.2128985 Z M416.709188,13.6310412 C416.709188,20.7800314 422.488934,26.7150422 429.881631,26.7150422 C437.408742,26.7150422 443.188487,20.7800314 443.188487,13.6310412 C443.188487,6.3471643 437.408742,0.547040134 429.881631,0.547040134 C422.488934,0.547040134 416.709188,6.3471643 416.709188,13.6310412 Z M419.666267,100.228244 L440.231408,100.228244 L440.231408,35.2128985 L419.666267,35.2128985 L419.666267,100.228244 Z M521.685494,60.7064675 C520.341367,46.6782602 510.126003,33.4593726 488.216736,33.4593726 C465.500993,33.4593726 453.403851,49.7806522 453.403851,67.7205712 C453.403851,85.7953767 465.500993,101.98177 488.216736,101.98177 C508.781877,101.98177 519.803717,90.516408 521.819907,75.8137677 L501.254766,75.8137677 C499.507401,81.3441186 496.281497,84.4465106 489.157625,84.4465106 C478.40461,84.4465106 473.968992,76.7579739 473.968992,67.7205712 C473.968992,58.818055 478.539023,50.9946317 488.351149,50.9946317 C496.684735,50.9946317 500.313878,54.9063434 501.120354,60.7064675 L521.685494,60.7064675 Z M534.99235,100.228244 L554.885427,100.228244 L554.885427,67.5856845 C554.885427,57.6040755 559.05222,51.1295183 567.385807,51.1295183 C575.988218,51.1295183 578.810885,57.6040755 578.810885,66.9112515 L578.810885,100.228244 L598.703962,100.228244 L598.703962,61.7855604 C598.703962,52.4783844 597.494248,46.0038272 593.461867,41.0130227 C589.967137,36.426878 584.187392,33.5942592 575.853806,33.5942592 C565.907267,33.5942592 558.514569,37.9106307 554.885427,44.6549611 L554.885427,5.80761787 L534.99235,5.80761787 L534.99235,100.228244 Z" id="GC" sketch:type="MSShapeGroup"></path>
            </g>
        </g>
    </g>
</svg>